<!DOCTYPE svg PUBLIC "-//W3C//DTD SVG 1.1//EN" "http://www.w3.org/Graphics/SVG/1.1/DTD/svg11.dtd">
<svg xmlns="http://www.w3.org/2000/svg" width="256" height="256" viewBox="0 0 5 5">
  <g style="fill: #ffffff">
    <rect x="0" y="0" width="5" height="5" />
  </g>
  <g style="fill: #ffd700">
    <rect x="0" y="0" width="1" height="1" />
    <rect x="1" y="0" width="1" height="1" />
    <rect x="2" y="0" width="1" height="1" />
    <rect x="3" y="0" width="1" height="1" />
    <rect x="4" y="0" width="1" height="1" />
    <rect x="0" y="1" width="1" height="1" />
    <rect x="1" y="1" width="1" height="1" />
    <rect x="2" y="1" width="1" height="1" />
    <rect x="3" y="1" width="1" height="1" />
    <rect x="4" y="1" width="1" height="1" />
    <rect x="0" y="2" width="1" height="1" />
    <rect x="1" y="2" width="1" height="1" />
    <rect x="2" y="2" width="1" height="1" />
    <rect x="3" y="2" width="1" height="1" />
    <rect x="4" y="2" width="1" height="1" />
    <rect x="0" y="3" width="1" height="1" />
    <rect x="1" y="3" width="1" height="1" />
    <rect x="2" y="3" width="1" height="1" />
    <rect x="3" y="3" width="1" height="1" />
    <rect x="4" y="3" width="1" height="1" />
    <rect x="0" y="4" width="1" height="1" />
    <rect x="1" y="4" width="1" height="1" />
    <rect x="2" y="4" width="1" height="1" />
    <rect x="3" y="4" width="1" height="1" />
    <rect x="4" y="4" width="1" height="1" />
  </g>
</svg>
