<?xml version="1.0" encoding="UTF-8"?>
<!DOCTYPE svg PUBLIC "-//W3C//DTD SVG 1.1//EN" "http://www.w3.org/Graphics/SVG/1.1/DTD/svg11.dtd">
<svg xmlns="http://www.w3.org/2000/svg" width="420" height="420" viewBox="0 0 12 12">
  <g style="fill: #f0f0f0">
    <rect x="0" y="0" width="12" height="12" />
  </g>
  <g style="fill: #ffd700" transform="translate(1, 1)">
    <rect x="0" y="0" width="2" height="2" />
    <rect x="2" y="0" width="2" height="2" />
    <rect x="4" y="0" width="2" height="2" />
    <rect x="6" y="0" width="2" height="2" />
    <rect x="8" y="0" width="2" height="2" />
    <rect x="0" y="2" width="2" height="2" />
    <rect x="2" y="2" width="2" height="2" />
    <rect x="4" y="2" width="2" height="2" />
    <rect x="6" y="2" width="2" height="2" />
    <rect x="8" y="2" width="2" height="2" />
    <rect x="0" y="4" width="2" height="2" />
    <rect x="2" y="4" width="2" height="2" />
    <rect x="4" y="4" width="2" height="2" />
    <rect x="6" y="4" width="2" height="2" />
    <rect x="8" y="4" width="2" height="2" />
    <rect x="0" y="6" width="2" height="2" />
    <rect x="2" y="6" width="2" height="2" />
    <rect x="4" y="6" width="2" height="2" />
    <rect x="6" y="6" width="2" height="2" />
    <rect x="8" y="6" width="2" height="2" />
    <rect x="0" y="8" width="2" height="2" />
    <rect x="2" y="8" width="2" height="2" />
    <rect x="4" y="8" width="2" height="2" />
    <rect x="6" y="8" width="2" height="2" />
    <rect x="8" y="8" width="2" height="2" />
  </g>
</svg>
